<svg version="1.1" id="Layer_1" xmlns="http://www.w3.org/2000/svg" x="0" y="0" viewBox="0 0 114 114" xml:space="preserve"><style>.st1{fill:#fff}</style><circle cx="57" cy="57" r="57" fill="#ce3c24"/><path class="st1" d="M25.8 77.9h2.3v2.3h-2.3z"/><path class="st1" d="M28.2 80.3h-2.4v-2.4h2.4v2.4zm-2.3-.1h2.2V78h-2.2v2.2zm46-5.1l-1.2-2.3c-.1-.2-.3-.4-.6-.5L62.4 69l-.5-2c2-1.6 3.2-4.3 3.2-7.6v-9.2c0-.3-.1-.6-.3-.8-2.2-1.8-4.9-2.8-7.7-2.6-2.8-.1-5.6.8-7.7 2.6-.2.2-.3.5-.3.8v9.2c0 3.3 1.2 6 3.2 7.6l-.6 1.9-7.7 3.3c-.3.1-.5.3-.6.5L42.2 75c-.2.3-.2.4-.2.6V93h2.3V75.9l.8-1.7 7-3 3.8 3.8v6.5h2.3V75l3.8-3.8 7 3 .8 1.7V93H72V75.6c0-.2 0-.3-.1-.5zM51.2 50.7c1.7-1.2 3.7-1.8 5.8-1.7 2.1-.1 4.1.5 5.8 1.7v5.1c-.6-.2-1.2-.4-1.2-1s-.5-1.2-1.2-1.2h-6.9c-.6 0-1.2.5-1.2 1.2 0 .5-.6.8-1.2 1l.1-5.1zM57 72.8l-3.3-3.3.4-1.4c.9.3 1.8.5 2.8.5 1 0 2-.2 2.8-.5l.4 1.4-3.1 3.3zm0-6.4c-4.3 0-5.8-3.7-5.8-6.9v-1.3c1.4-.1 2.6-1 3.3-2.2h5c.6 1.2 1.9 2.1 3.3 2.2v1.3c0 3.1-1.5 6.9-5.8 6.9z"/><path class="st1" d="M72.1 93h-2.4V75.9l-.8-1.7-6.9-3-3.8 3.8v6.5h-2.4V75l-3.7-3.7-6.9 3-.8 1.7v17H42V75.6c0-.2 0-.4.1-.5l1.2-2.3c.1-.3.3-.5.6-.6l7.6-3.3.6-1.9c-2.1-1.7-3.2-4.4-3.2-7.6v-9.2c0-.3.1-.6.4-.8 2.2-1.8 4.9-2.8 7.8-2.7 2.8-.1 5.6.8 7.8 2.7.2.2.4.5.4.9v9.2c0 3.2-1.1 5.9-3.2 7.6l.6 1.9 7.7 3.3c.3.1.5.3.6.6l1.2 2.3c.1.2.1.4.1.5V93zm-2.3-.1H72V75.6c0-.2 0-.3-.1-.5l-1.2-2.3c-.1-.2-.3-.4-.6-.5L62.5 69l-.6-2c2.1-1.7 3.2-4.3 3.2-7.5v-9.2c0-.3-.1-.6-.3-.8-2.2-1.8-4.9-2.8-7.7-2.6-2.8-.1-5.6.8-7.7 2.6-.2.2-.3.5-.3.8v9.2c0 3.2 1.1 5.9 3.2 7.5l-.6 2-7.7 3.3c-.2.1-.4.3-.6.5l-1.2 2.3c-.1.2-.1.3-.1.5v17.3h2.2v-17l.9-1.7 7-3L56 75v6.4h2.2V75l3.8-3.8 7 3 .9 1.7v17zM57 72.9l-3.3-3.3.5-1.4c.9.3 1.8.5 2.8.5 1 0 1.9-.2 2.8-.5l.5 1.4-3.3 3.3zm-3.2-3.4l3.2 3.2 3.2-3.2-.4-1.3c-.9.3-1.8.5-2.8.5-1 0-1.9-.2-2.8-.5l-.4 1.3zm3.2-3.1c-4.3 0-5.8-3.8-5.8-7v-1.3c1.4-.1 2.6-.9 3.2-2.2h5.1c.6 1.2 1.8 2 3.2 2.2v1.3c.1 3.3-1.4 7-5.7 7zm-5.7-8.2v1.2c0 3.2 1.5 6.9 5.7 6.9s5.7-3.7 5.7-6.9v-1.2c-1.4-.1-2.6-1-3.2-2.2h-5c-.6 1.3-1.8 2.1-3.2 2.2zm-.1-2.3v-5.2c1.7-1.2 3.8-1.8 5.8-1.7 2-.1 4.1.5 5.8 1.7v5.2h-.1c-.8-.2-1.2-.6-1.2-1 0-.6-.5-1.1-1.1-1.1h-6.9c-.6 0-1.1.5-1.1 1.1 0 .4-.4.8-1.2 1zm2.3-2.3h6.9c.7 0 1.2.5 1.2 1.2 0 .5.6.8 1.1.9v-5C61.1 49.6 59 49 57 49.1c-2-.1-4.1.5-5.7 1.7v5c.5-.1 1.1-.4 1.1-.9-.1-.7.5-1.3 1.1-1.3z"/><path class="st1" d="M47.8 86h2.3v6.9h-2.3z"/><path class="st1" d="M50.1 93h-2.4v-7h2.4v7zm-2.3-.1H50v-6.8h-2.2v6.8zM63.9 86h2.3v6.9h-2.3z"/><path class="st1" d="M66.3 93h-2.4v-7h2.4v7zm-2.3-.1h2.2v-6.8H64v6.8zm6.6-56.1L57.9 19.5l-.2-.2c-.5-.4-1.3-.3-1.7.2L43.4 36.8c-.1.2-.2.4-.2.7 0 .6.5 1.2 1.2 1.2H49v4.6h2.3v-5.8c0-.6-.5-1.2-1.2-1.2h-3.5L57 22.1l10.4 14.2h-3.5c-.6 0-1.2.5-1.2 1.2v5.8H65v-4.6h4.6c.2 0 .5-.1.7-.2.6-.4.7-1.2.3-1.7z"/><path class="st1" d="M65.1 43.3h-2.4v-5.8c0-.7.5-1.2 1.2-1.2h3.4L57 22.2 46.7 36.3h3.4c.7 0 1.2.5 1.2 1.2v5.8h-2.4v-4.6h-4.6c-.7 0-1.2-.5-1.2-1.2 0-.3.1-.5.2-.7L56 19.5c.4-.5 1.2-.6 1.8-.2l.2.2 12.7 17.3c.2.3.3.6.2.9 0 .3-.2.6-.5.8-.2.2-.5.2-.7.2h-4.6v4.6zm-2.3-.1H65v-4.6h4.7c.2 0 .5-.1.7-.2.2-.2.4-.4.4-.7 0-.3 0-.6-.2-.8L57.9 19.5c0-.1-.1-.1-.2-.2-.5-.4-1.2-.3-1.6.2L43.4 36.8c-.1.2-.2.4-.2.7 0 .6.5 1.1 1.1 1.1H49v4.6h2.2v-5.7c0-.6-.5-1.1-1.1-1.1h-3.6l.1-.1L57 22l10.5 14.3h-3.6c-.6 0-1.1.5-1.1 1.1v5.8zM93.7 53L81 35.7l-.2-.2c-.5-.4-1.3-.3-1.7.2L66.5 53c-.1.2-.2.4-.2.7 0 .6.5 1.2 1.2 1.2H72V63h2.3v-9.2c0-.6-.5-1.2-1.2-1.2h-3.5L80 38.4l10.4 14.2H80.1v2.3h5.8v20.8h2.3V54.8h4.6c.2 0 .5-.1.7-.2.5-.4.6-1.1.2-1.6z"/><path class="st1" d="M88.2 75.7h-2.4V54.9H80v-2.4h10.4L80.1 38.4 69.8 52.5h3.4c.7 0 1.2.5 1.2 1.2V63H72v-8.1h-4.6c-.7 0-1.2-.5-1.2-1.2 0-.3.1-.5.2-.7l12.7-17.3c.4-.5 1.2-.6 1.8-.2l.2.2L93.8 53c.4.5.3 1.3-.3 1.7-.2.2-.5.2-.7.2h-4.6v20.8zm-2.3-.1h2.2V54.8h4.7c.2 0 .5-.1.7-.2.5-.4.6-1.1.2-1.6L81 35.7c0-.1-.1-.1-.2-.2-.5-.4-1.2-.3-1.6.2L66.5 53c-.1.2-.2.4-.2.7 0 .6.5 1.1 1.1 1.1h4.7v8.1h2.2v-9.2c0-.6-.5-1.1-1.1-1.1h-3.6l.1-.1 10.5-14.3 10.5 14.3H80.2v2.2H86v20.9zM47.5 53L34.8 35.7l-.2-.2c-.5-.4-1.3-.3-1.7.2L20.3 53c-.1.2-.2.4-.2.7 0 .6.5 1.2 1.2 1.2h4.6v20.8h2.3V54.8H34v-2.3H23.5l10.4-14.2 10.4 14.2h-3.5c-.6 0-1.2.5-1.2 1.2v9.2H42v-8.1h4.6c.2 0 .5-.1.7-.2.5-.4.6-1.1.2-1.6z"/><path class="st1" d="M28.2 75.7h-2.4V54.9h-4.6c-.7 0-1.2-.5-1.2-1.2 0-.3.1-.5.2-.7l12.7-17.3c.4-.5 1.2-.6 1.8-.2l.2.2L47.6 53c.2.3.3.6.2.9 0 .3-.2.6-.5.8-.2.2-.5.2-.7.2H42V63h-2.4v-9.3c0-.7.5-1.2 1.2-1.2h3.4L33.9 38.4 23.6 52.5H34v2.4h-5.8v20.8zm-2.3-.1h2.2V54.8h5.8v-2.2H23.4l.1-.1L34 38.2l10.5 14.3h-3.6c-.6 0-1.1.5-1.1 1.1v9.2H42v-8.1h4.7c.2 0 .5-.1.7-.2.2-.2.4-.4.4-.7 0-.3 0-.6-.2-.8L34.8 35.7c0-.1-.1-.1-.2-.2-.5-.4-1.2-.3-1.6.2L20.3 53c-.1.2-.2.4-.2.7 0 .6.5 1.1 1.1 1.1h4.7v20.8zm13.8-10.4H42v2.3h-2.3z"/><path class="st1" d="M42 67.6h-2.4v-2.4H42v2.4zm-2.3-.1h2.2v-2.2h-2.2v2.2zM72 65.2h2.3v2.3H72z"/><path class="st1" d="M74.4 67.6H72v-2.4h2.4v2.4zm-2.3-.1h2.2v-2.2h-2.2v2.2zm13.8 10.4h2.3v2.3h-2.3z"/><path class="st1" d="M88.2 80.3h-2.4v-2.4h2.4v2.4zm-2.3-.1h2.2V78h-2.2v2.2z"/></svg>