<svg version="1.1" id="Layer_1" xmlns="http://www.w3.org/2000/svg" x="0" y="0" viewBox="0 0 114 114" xml:space="preserve"><style>.st1{fill:#fff}</style><circle cx="57" cy="57" r="57" fill="#ce3c24"/><path class="st1" d="M80.8 76.9c-.6 0-1.1.5-1.1 1.1v10.2c0 .3-.3.6-.6.6h-5.8V67.4c0-.6-.5-1.1-1.1-1.1s-1.1.5-1.1 1.1v21.3H59.4l3.4-3.7c.4-.4.5-1 .5-1.6l-3.2-19.1.9-1.3c.5.3.9.7 1.5.7.7 0 1.4-.4 1.7-1l3.4-6.8 7.8 3c.3.1 4.4 2 4.4 6.8V73c0 .6.5 1.1 1.1 1.1.6 0 1.1-.5 1.1-1.1v-7.3c0-6.4-5.5-8.7-5.7-8.8l-12.9-5v-3c2.1-1.6 3.5-4 3.8-6.7 1-.1 2-.5 2.7-1.1 1-.9 1.6-2.1 1.6-3.5 0-1.1-.4-2.2-1.1-3v-4c0-7.4-6-13.4-13.4-13.4s-13.4 6-13.4 13.4v4.1c-.7.8-1.1 1.8-1.1 2.9 0 1.3.6 2.6 1.6 3.5.8.7 1.7 1 2.7 1.1.4 2.8 1.8 5.2 4.1 6.8v2.9l-12.9 5c-.2.1-5.7 2.4-5.7 8.8v22.5c0 1.5 1.2 2.8 2.8 2.8h10.3c.6 0 1.1-.5 1.1-1.1 0-.6-.5-1.1-1.1-1.1h-2.3V67.4c0-.6-.5-1.1-1.1-1.1-.6 0-1.1.5-1.1 1.1v21.3h-5.8c-.3 0-.6-.3-.6-.6V65.6c0-4.9 4.1-6.7 4.4-6.8l7.8-3 3.4 6.8c.3.7 1 1 1.7 1s1.1-.3 1.5-.7l.9 1.3L51 83.3c-.1.6.1 1.1.5 1.6l3.4 3.7h-4.3c-.6 0-1.1.5-1.1 1.1s.5 1.1 1.1 1.1h28.9c1.5 0 2.8-1.2 2.8-2.8V78c-.4-.6-.9-1.1-1.5-1.1zM65.6 55l-3.2 6.4c-.1-.1-1.8-1.3-3.8-2.7.9-1.1-.2.2 3.9-4.8l3.1 1.1zm-6.4 6.8l-.9 1.2h-2.7l-.8-1.2 2.2-1.5 2.2 1.5zm-6.3-9.7v-2c1.3.5 2.7.8 4.1.8 1.4 0 2.8-.3 4-.8v2.1l-4.1 5-4-5.1zm16.3-14.6c0 .7-.3 1.4-.8 1.8-.4.3-.8.5-1.2.6v-4.8c1.2.2 2 1.2 2 2.4zm-22.6 2.4c-1.3-.2-2.1-1.2-2.1-2.4s1-2.1 2.1-2.4v4.8zm.1-7c-.3 0-.7.1-1 .2v-2.7c0-6.2 5-11.2 11.2-11.2s11.2 5 11.2 11.2V33c-.3-.1-.6-.2-1-.2 0-1 0-.8-3.4-4.5-.6-.7-1.7-.8-2.5-.3-3.8 2.5-8.4 3.7-12.6 3.4-.8 0-1.7.6-1.9 1.5zm2.1 7.9v-7.2c4.7.3 9.6-1.1 13.5-3.6 1.6 1.7 2.4 2.6 2.7 2.9v7.8c0 4.4-3.6 8-8 8-4.9 0-8.2-3.8-8.2-7.9zm2.8 20.6L48.4 55l3.1-1.2 3.9 4.8c-2 1.5-3.6 2.7-3.8 2.8zm1.3 22.3L56 65.2h2l3.1 18.5-4.1 4.5-4.1-4.5z"/><path class="st1" d="M79.1 91H50.2c-.6 0-1.2-.5-1.2-1.2 0-.6.5-1.2 1.2-1.2h4.1L51.1 85c-.4-.4-.6-1-.5-1.6l3.2-19.1-.8-1.2h-.1c-.4.3-.8.6-1.5.6-.8 0-1.4-.4-1.8-1.1l-3.4-6.8-7.7 3c-.2.1-4.3 1.9-4.3 6.7V88c0 .3.2.5.5.5h5.7V67.4c0-.6.5-1.2 1.2-1.2.6 0 1.2.5 1.2 1.2v21.2H45c.6 0 1.2.5 1.2 1.2 0 .6-.5 1.2-1.2 1.2H34.9c-1.6 0-2.9-1.3-2.9-2.9V65.6c0-6.5 5.5-8.8 5.8-8.9l12.9-5V49c-2.2-1.6-3.7-4.1-4-6.8-1-.1-2-.5-2.7-1.1-1-.9-1.6-2.2-1.6-3.6 0-1.1.4-2.1 1.1-2.9v-4.1C43.5 23.1 49.6 17 57 17s13.5 6.1 13.5 13.5v4c.7.8 1.1 1.9 1.1 3 0 1.4-.6 2.7-1.6 3.5-.8.7-1.7 1.1-2.7 1.1-.4 2.6-1.7 5-3.8 6.6v2.9l12.9 5c.2.1 5.8 2.4 5.8 8.9v7.3c0 .6-.5 1.2-1.2 1.2-.3 0-.6-.1-.8-.3-.2-.2-.3-.5-.3-.8v-7.3c0-4.8-4.1-6.6-4.3-6.7l-7.7-3-3.4 6.8c-.3.7-1 1.1-1.8 1.1-.7 0-1-.3-1.5-.6l-.2-.1-.8 1.2 3.2 19.1c.1.6-.1 1.2-.5 1.6l-3.2 3.6H71V67.4c0-.6.5-1.2 1.2-1.2.6 0 1.2.5 1.2 1.2v21.2h5.7c.3 0 .5-.2.5-.5V78c0-.6.5-1.2 1.2-1.2.6 0 1.2.5 1.2 1.2v10.2c0 1.5-1.3 2.8-2.9 2.8zm-28.9-2.2c-.5 0-1 .4-1 1 0 .5.4 1 1 1h28.9c1.5 0 2.7-1.2 2.7-2.7V78c0-.5-.4-1-1-1-.5 0-1 .4-1 1v10.2c0 .4-.3.7-.7.7h-5.9V67.4c0-.5-.4-1-1-1-.5 0-1 .4-1 1v21.4h-12l3.5-3.9c.4-.4.5-.9.4-1.5L60 64.3l.9-1.4.2.2c.4.3.8.5 1.3.5.7 0 1.3-.4 1.6-1l3.4-6.9 7.8 3c.2.1 4.4 2 4.4 6.9v7.3c0 .3.1.5.3.7.2.2.4.3.7.3.5 0 1-.4 1-1v-7.3c0-6.3-5.4-8.6-5.6-8.7l-13-5v-3.1c2.1-1.6 3.5-4 3.8-6.6v-.1h.1c1-.1 1.9-.5 2.7-1.1 1-.9 1.6-2.1 1.6-3.4 0-1.1-.4-2.1-1.1-2.9v-4c0-7.3-6-13.3-13.3-13.3-7.3 0-13.3 6-13.3 13.3v4.1c-.7.8-1.1 1.8-1.1 2.8 0 1.3.6 2.6 1.6 3.4.8.6 1.7 1 2.7 1.1h.1v.1c.4 2.7 1.8 5.2 4 6.8v3l-13 5-.1-.1v.1c-.2.1-5.6 2.4-5.6 8.7v22.5c0 1.5 1.2 2.7 2.7 2.7h10.3c.5 0 1-.4 1-1s-.4-1-1-1h-2.4V67.4c0-.5-.4-1-1-1-.5 0-1 .4-1 1v21.4h-5.9c-.4 0-.7-.3-.7-.7V65.6c0-5 4.2-6.8 4.4-6.9l7.8-3 3.4 6.9c.3.6.9 1 1.6 1 .6 0 .9-.2 1.3-.5l.2-.2.9 1.4-3.2 19.1c-.1.5.1 1.1.4 1.5l3.5 3.9h-4.2zm6.8-.4l-4.2-4.7L56 65.1h2.2v.1l3.1 18.5-4.3 4.7zm-4-4.8l4 4.4 4-4.4-3.1-18.4H56l-3 18.4zm5.4-20.5h-2.8l-.9-1.4 2.3-1.6 2.3 1.6-.9 1.4zm-2.7-.2h2.6l.7-1.1-2-1.5-2 1.5.7 1.1zm6.7-1.4l-4-2.8 4-5 3.2 1.3-3.2 6.5zm-3.7-2.8l3.7 2.6 3.1-6.2-2.9-1.1-3.9 4.7zm-7.1 2.8L48.3 55l3.2-1.3 4 5-3.9 2.8zm-3-6.4l3.1 6.2 3.6-2.6-3.8-4.7-2.9 1.1zm8.4 2.2l-4.2-5.1V50h.2c1.2.5 2.6.8 4.1.8 1.4 0 2.8-.3 4-.8l.1-.1v2.3L57 57.3zm-4-5.2l4 4.9 4-4.9v-1.9c-1.3.5-2.6.8-4 .8s-2.8-.3-4-.7v1.8zm4-3.3c-2.3 0-4.5-.9-6-2.5-1.5-1.5-2.3-3.5-2.3-5.6v-7.2h.1c4.5.3 9.4-1.1 13.5-3.6h.1l.1.1c.5.6 1 1 1.3 1.4.7.8 1.2 1.2 1.3 1.5v7.9c0 4.4-3.6 8-8.1 8zm-8.1-15v7c0 2 .8 4 2.2 5.5 1.5 1.5 3.6 2.4 5.9 2.4 4.3 0 7.9-3.5 7.9-7.9V33c-.2-.2-.6-.7-1.3-1.4-.4-.4-.8-.8-1.3-1.4-4 2.5-8.9 3.8-13.4 3.6zM67.1 40v-5h.1c1.3.2 2.2 1.3 2.2 2.5 0 .7-.3 1.4-.9 1.9-.4.3-.8.5-1.3.6h-.1zm.1-4.8v4.6c.4-.1.8-.3 1.1-.5.5-.4.8-1.1.8-1.8 0-1.1-.8-2.1-1.9-2.3zM46.7 40h-.1c-1.3-.2-2.2-1.3-2.2-2.5 0-1.1.9-2.2 2.2-2.5h.1v5zm-.2-4.7c-1.1.3-1.9 1.2-1.9 2.2 0 1.1.8 2.1 1.9 2.3v-4.5zm-.9-2v-2.8c0-6.2 5.1-11.3 11.3-11.3s11.3 5.1 11.3 11.3v2.7h-.1c-.3-.1-.6-.2-1-.2H67v-.1c0-.8 0-.8-2-3-.4-.4-.8-.9-1.4-1.4-.6-.7-1.6-.8-2.3-.3-3.8 2.5-8.4 3.7-12.7 3.4-.9-.1-1.7.5-1.9 1.4v.1h-.1c-.3 0-.7.1-1 .2zm11.3-13.9c-6.1 0-11.1 5-11.1 11.1V33c.3-.1.6-.2.9-.2.3-.9 1.1-1.5 2.1-1.5 4.2.3 8.8-.9 12.5-3.4.8-.5 1.9-.4 2.6.3.5.6 1 1 1.4 1.4 2 2.1 2.1 2.2 2.1 3 .3 0 .5.1.8.1v-2.5C68 24.3 63 19.4 56.9 19.4z"/></svg>