<svg version="1.1" id="Layer_1" xmlns="http://www.w3.org/2000/svg" x="0" y="0" viewBox="0 0 114 114" xml:space="preserve"><style>.st1{fill:#fff}</style><circle cx="57" cy="57" r="57" fill="#ce3c24"/><path class="st1" d="M55.7 17.5h2.5V20h-2.5v-2.5zm-6.1 1.7l2.3-1 1 2.3-2.3 1-1-2.3zm-5 3.9l1.8-1.8 1.8 1.8-1.8 1.8-1.8-1.8zm-3.1 5.6l1-2.3 2.3 1-1 2.3-2.3-1zm27.7-1.4l2.3-1 1 2.3-2.3 1-1-2.3zm-3.4-4.2l1.8-1.8 1.8 1.8-1.8 1.8-1.8-1.8zm-4.7-2.5l1-2.3 2.3 1-1 2.3-2.3-1z"/><path class="st1" d="M89.5 69.9l-3.7-32.5c-.1-.6-.6-1.1-1.2-1.1H68.2c0-.4.1-.8.1-1.2 0-6.2-5-11.2-11.2-11.2s-11.2 5-11.2 11.2c0 .4 0 .8.1 1.2H29.5c-.6 0-1.2.5-1.2 1.1l-3.7 32.5c0 .4.1.8.4 1 3 3 3 7.8 0 10.7-.5.5-.5 1.3 0 1.8.2.2.6.4.9.4H52c1.8 0 3.6-.7 5-1.9 1.4 1.2 3.2 1.9 5 1.9h6.2v7.5c0 .7.6 1.2 1.3 1.2.3 0 .6-.1.9-.4l4.1-4.1 4.1 4.1c.5.5 1.3.5 1.8 0 .2-.2.4-.6.4-.9v-7.5h7.5c.7 0 1.2-.6 1.2-1.3 0-.3-.1-.6-.4-.9-3-3-3-7.8 0-10.7.3-.2.4-.6.4-.9zM57 26.3c4.8 0 8.7 3.9 8.7 8.7 0 2.8-1.3 5.4-3.5 7-.3.2-.5.5-.5.9l-.4 4.6h-3v-7l3.4-3.4-1.8-1.8-2.9 2.9-2.9-2.9-1.8 1.8 3.4 3.4v7h-3l-.4-4.6c0-.4-.2-.7-.5-.9-2.2-1.6-3.6-4.2-3.5-7 0-4.8 3.9-8.7 8.7-8.7zm-3.9 26.2l-.2-2.5h8.2l-.2 2.5h-7.8zm7.3 2.5c-.6 1.9-2.5 2.9-4.4 2.3-1.1-.3-2-1.2-2.3-2.3h6.7zm17.9 33.2l-2.9-2.9c-.5-.5-1.3-.5-1.8 0l-2.9 2.9v-12h7.5v12zm7.4-7h-5V75c0-.7-.6-1.2-1.2-1.2H63.3v2.5h5v5H62c-1.6 0-3.1-.8-4-2-.5-.6-1.3-.6-1.8-.2l-.2.2c-.9 1.3-2.4 2-4 2H28.3c.4-.8.8-1.6 1-2.5h21.5v-2.5H29.6c0-1.8-.5-3.5-1.3-5H52c1.6 0 3.1.8 4 2 .5.6 1.3.6 1.8.2l.2-.2c.9-1.3 2.4-2 4-2h23.7c-1.7 3-1.7 6.8 0 9.9zM62 68.7c-1.8 0-3.6.7-5 1.9-1.4-1.2-3.2-1.9-5-1.9H27.2l3.5-30h15.8c.7 1.9 1.9 3.6 3.5 4.9l.9 10.2c0 .1 0 .1.1.2l.3 1.4c.8 3.2 4.1 5.2 7.3 4.4 2.2-.5 3.9-2.2 4.4-4.4l.3-1.4c0-.1 0-.1.1-.2l.9-10.2c1.6-1.3 2.8-3 3.5-4.9h15.8l3.5 30H62z"/><path class="st1" d="M33.3 55h11.2c.7 0 1.2-.6 1.2-1.2V42.5c0-.7-.6-1.2-1.2-1.2h-10c-.6 0-1.2.5-1.2 1.1L32 53.6c-.1.7.4 1.3 1.1 1.4h.2zm2.3-11.3h7.6v8.7h-8.6l1-8.7zM32 57.5h7.5V60H32v-2.5zm10 0h2.5V60H42v-2.5zm-11.2 5H42V65H30.8v-2.5zm13.7 0h6.2V65h-6.2v-2.5zm23.8-20h12.5V45H68.3v-2.5zm-1.3 5h2.5V50H67v-2.5zm5 0h10V50H72v-2.5zm-6.2 5H72V55h-6.2v-2.5zm8.7 0H82V55h-7.5v-2.5zm6.3 5h2.5V60h-2.5v-2.5zm-16.3 0h13.7V60H64.5v-2.5zm-2.5 5h12.5V65H62v-2.5zm15 0h6.2V65H77v-2.5z"/></svg>