<svg version="1.1" id="Layer_1" xmlns="http://www.w3.org/2000/svg" x="0" y="0" viewBox="0 0 114 114" xml:space="preserve"><style>.st1{fill:#fff}</style><circle cx="57" cy="57" r="57" fill="#ce3c24"/><path class="st1" d="M57.7 69.6c-.2-.2-.5-.3-.8-.3s-.6.1-.8.3c-.2.2-.3.5-.3.8 0 .3.1.6.3.8.2.2.5.3.8.3s.6-.1.8-.3c.2-.2.3-.5.3-.8 0-.3-.1-.6-.3-.8z"/><path class="st1" d="M82.1 59.4c-.6 0-1.2.5-1.2 1.2v5.1H61.2v-2.8c0-4.4-3.3-8-7.5-8.5.8-1 1.3-2.4 1.3-3.8v-8.1c0-.6-.5-1.2-1.2-1.2h-6c-2.7 0-4.9 2.2-4.9 4.9v4.4c0 1.4.5 2.7 1.3 3.8-4.2.5-7.5 4.2-7.5 8.5v2.8h-3.9V37.9c0-.5.4-.9.9-.9h24c.6 0 1.2-.5 1.2-1.2 0-.6-.5-1.2-1.2-1.2h-24c-1.8 0-3.2 1.4-3.2 3.2V72c0 1.8 1.4 3.2 3.2 3.2h17.5v5.3c-2.9.3-5.2 2.8-5.2 5.7 0 .6.5 1.2 1.2 1.2h19.4c.6 0 1.2-.5 1.2-1.2 0-3-2.3-5.4-5.2-5.7v-5.3h17.5c1.8 0 3.2-1.4 3.2-3.2V60.5c0-.6-.5-1.1-1.2-1.1zM45.2 46c0-1.4 1.1-2.6 2.6-2.6h4.9v1.8c0 .9-.7 1.7-1.7 1.7h-5.8V46zm0 3.3H51c.6 0 1.2-.1 1.7-.4v1.5c0 2-1.7 3.7-3.7 3.7s-3.7-1.7-3.7-3.7v-1.1zm5.1 7.2L49 57.8l-1.3-1.3h2.6zM39 62.8c0-3.2 2.3-5.8 5.4-6.2l3.7 3.7c.2.2.5.3.8.3.3 0 .6-.1.8-.3l3.7-3.7c3 .4 5.4 3.1 5.4 6.2v2.8H39v-2.8zm26.2 22.4H48.6c.5-1.3 1.8-2.3 3.3-2.3H62c1.5 0 2.7.9 3.2 2.3zm-11.7-4.6v-5.3h6.7v5.3h-6.7zM81 72.1c0 .5-.4.9-.9.9H33.7c-.5 0-.9-.4-.9-.9v-4.2H81v4.2zm1.9-16.7c-.2-.2-.5-.3-.8-.3s-.6.1-.8.3c-.2.2-.3.5-.3.8 0 .3.1.6.3.8.2.2.5.3.8.3s.6-.1.8-.3c.2-.2.3-.5.3-.8.1-.3 0-.6-.3-.8zm-.8-21.5h-8.6c-.6 0-1.2.5-1.2 1.2 0 .6.5 1.2 1.2 1.2h8.6c.6 0 1.2-.5 1.2-1.2s-.5-1.2-1.2-1.2zm-12.5.4c-.2-.2-.5-.3-.8-.3s-.6.1-.8.3c-.2.2-.3.5-.3.8 0 .3.1.6.3.8.2.2.5.3.8.3s.6-.1.8-.3c.2-.2.3-.5.3-.8s-.1-.6-.3-.8zM82.1 39H68.8c-.6 0-1.2.5-1.2 1.2 0 .6.5 1.2 1.2 1.2h13.4c.6 0 1.2-.5 1.2-1.2-.1-.7-.6-1.2-1.3-1.2z"/><path class="st1" d="M82.1 44.1H68.8c-.6 0-1.2.5-1.2 1.2 0 .6.5 1.2 1.2 1.2h13.4c.6 0 1.2-.5 1.2-1.2-.1-.7-.6-1.2-1.3-1.2z"/><path class="st1" d="M83.7 28.5H67.1c-3.2 0-5.8 2.6-5.8 5.8v12.3c0 3 2.2 5.4 5.1 5.7v3c0 .5.3.9.7 1.1.1.1.3.1.4.1.3 0 .6-.1.8-.3l3.8-3.8h11.5c3.2 0 5.8-2.6 5.8-5.8V34.3c.1-3.2-2.5-5.8-5.7-5.8zm3.5 18.1c0 1.9-1.6 3.5-3.5 3.5h-12c-.3 0-.6.1-.8.3l-2.1 2.1v-1.3c0-.6-.5-1.2-1.2-1.2h-.5c-1.9 0-3.5-1.6-3.5-3.5V34.3c0-1.9 1.6-3.5 3.5-3.5h16.6c1.9 0 3.5 1.6 3.5 3.5v12.3z"/></svg>