<svg version="1.1" id="Layer_1" xmlns="http://www.w3.org/2000/svg" x="0" y="0" viewBox="0 0 114 114" xml:space="preserve"><style>.st1{fill:#fff}</style><circle cx="57" cy="57" r="57" fill="#ce3c24"/><path class="st1" d="M65.3 57c0-4.6-3.7-8.3-8.3-8.3s-8.3 3.7-8.3 8.3 3.7 8.3 8.3 8.3 8.3-3.7 8.3-8.3zM57 63.2c-3.4 0-6.2-2.8-6.2-6.2 0-3.4 2.8-6.2 6.2-6.2s6.2 2.8 6.2 6.2c0 3.4-2.8 6.2-6.2 6.2z"/><path class="st1" d="M84.8 56.1c-.1-3.3-.8-6.5-2-9.6v-2.7c0-.7.3-1.3.9-1.7 2.7-1.7 4.3-4.6 4.3-7.8 0-2.6-1.1-5.2-3.1-6.9-2-1.8-4.6-2.6-7.3-2.3-3.9.4-7.1 3.4-8 7.1-3.9-2-8.2-3-12.6-3-3.2 0-6.3.5-9.3 1.6V25h-6.2v16.5h-2.1V29.1h-6.2v12.4h-2.1v-8.3H25v10.3h7.6c-2.3 4.1-3.4 8.7-3.4 13.4 0 3.2.6 6.3 1.6 9.3-.4.6-.6 1.3-.6 2.1h-2.1c-1.7 0-3.1 1.4-3.1 3.1v5.2h2.1c1.1 0 2.1.9 2.1 2.1 0 1.1-.9 2.1-2.1 2.1H25V86c0 1.7 1.4 3.1 3.1 3.1h12.4c1.7 0 3.1-1.4 3.1-3.1v-5.2h-2.1c-1.1 0-2.1-.9-2.1-2.1 0-1.1.9-2.1 2.1-2.1h2.1v-5.2c0-1.7-1.4-3.1-3.1-3.1h-2.1c0-2.3-1.9-4.1-4.1-4.1-.7 0-1.3.2-1.9.5-.7-2.2-1.1-4.4-1.2-6.7h12.3v2.8l1.9.7c.1.2.1.3.2.5l-.9 1.8 5.4 5.4 1.8-.9c.2.1.3.1.5.2l.7 1.9H56v12.4c-3.4-.1-6.7-.9-9.8-2.4l-.9 1.9c3.7 1.7 7.6 2.6 11.8 2.6 8.5 0 16.4-3.8 21.7-10.4V82l2.7 5.5c.5.9 1.4 1.5 2.4 1.5s2-.6 2.4-1.5L89 82V61.1c0-2.5-1.8-4.6-4.2-5zM29.1 41.5H27v-6.2h2.1v6.2zm42.4-8.2c.4-3.2 3.1-5.9 6.3-6.2h.9c1.8 0 3.5.6 4.8 1.8 1.5 1.4 2.4 3.3 2.4 5.4 0 2.5-1.2 4.7-3.3 6.1-1.1.7-1.8 1.9-1.8 3.2h-1v-6.4c1.2-.4 2.1-1.6 2.1-2.9 0-1.7-1.4-3.1-3.1-3.1-1.7 0-3.1 1.4-3.1 3.1 0 1.3.9 2.5 2.1 2.9v6.4h-1c-.1-1.3-.7-2.5-1.8-3.2-2.6-1.5-3.8-4.2-3.5-7.1zm9.2 12.3v1c0 .6-.5 1-1 1h-2.1c-.6 0-1-.5-1-1v-1h4.1zm-3.1-11.3c0-.6.5-1 1-1s1 .5 1 1c0 .6-.5 1-1 1s-1-.4-1-1zM58 31.2c4 .2 7.9 1.2 11.4 3.1 0 3.1 1.6 6 4.3 7.7.5.3.9 1 .9 1.7v2.8c0 1.7 1.4 3.1 3.1 3.1h2.1c.7 0 1.3-.2 1.9-.6.7 2.2 1.1 4.5 1.2 6.8H70.4V53l-1.9-.7c-.1-.2-.1-.3-.2-.5l.9-1.8-5.4-5.4-1.8 1.1c-.2-.1-.3-.1-.5-.2l-.7-1.9H58V31.2zm-14.4-4.1h2.1v14.5h-2.1V27.1zm-8.3 4.1h2.1v10.3h-2.1V31.2zm-3.1 39.2v-2.1c0-1.1.9-2.1 2.1-2.1s2.1.9 2.1 2.1v2.1h4.1c.6 0 1 .5 1 1v3.1c-2.3 0-4.1 1.9-4.1 4.1 0 2.3 1.9 4.1 4.1 4.1v3.1c0 .6-.5 1-1 1H28.1c-.6 0-1-.5-1-1v-3.1c2.3 0 4.1-1.9 4.1-4.1 0-2.3-1.9-4.1-4.1-4.1v-3.1c0-.6.5-1 1-1h4.1zm11.4-17.2V56H31.2c.2-4.4 1.5-8.6 3.7-12.4h12.7V32.9c2.6-1 5.4-1.6 8.3-1.7v12.4h-2.8l-.7 1.9c-.2.1-.3.1-.5.2l-1.8-.9-5.4 5.4.9 1.8c-.1.2-.1.3-.2.5l-1.8.7zm11 15.2l-.5-1.4-.5-.2c-.4-.1-.8-.3-1.2-.5L52 66l-1.4.7-3.3-3.3.7-1.4-.2-.4c-.2-.4-.4-.8-.5-1.2l-.2-.5-1.4-.5v-4.7l1.4-.5.2-.5c.1-.4.3-.8.5-1.2l.2-.5-.7-1.4 3.3-3.3 1.4.7.4-.2c.4-.2.8-.4 1.2-.5l.5-.2.5-1.4h4.7l.5 1.4.5.2c.4.1.8.3 1.2.5l.5.2 1.4-.7 3.3 3.3L66 52l.2.4c.2.4.4.8.5 1.2l.2.5 1.4.5v4.7l-1.4.5-.2.5c-.1.4-.3.8-.5 1.2l-.2.5.7 1.4-3.3 3.3L62 66l-.4.2c-.4.2-.8.4-1.2.5l-.5.2-.5 1.4-4.8.1zm24.1-7.3V71C74.1 78.1 66.4 82.4 58 82.8V70.4h2.8l.7-1.9c.2-.1.3-.1.5-.2l1.8.9 5.4-5.4-.9-1.8c.1-.2.1-.3.2-.5l1.9-.7V58h9.3c-.6.9-1 2-1 3.1zm2 3.1h2.1v16.5h-2.1V64.2zm3.7 22.4c-.2.4-.9.4-1.1 0l-1.9-3.8h4.9l-1.9 3.8zm2.5-5.9h-2.1V64.2h2.1v16.5zm0-18.5h-6.2v-1c0-1.7 1.4-3.1 3.1-3.1 1.7 0 3.1 1.4 3.1 3.1v1z"/><path class="st1" d="M60.2 80.5c5.4-.7 10.4-3.3 14.1-7.3l-1.5-1.4c-3.4 3.6-8 6-12.9 6.7l.3 2zm17.4-11.6l-1.8-1c-.4.7-.8 1.3-1.3 2l1.7 1.2c.5-.8.9-1.5 1.4-2.2z"/></svg>